{
  "accessors": [
    {
      "bufferView": 2,
      "componentType": 5126,
      "count": 8716,
      "max": [
        0.5152390003204346,
        0.12448500096797943,
        3.7930569648742676
      ],
      "min": [
        -0.5152390003204346,
        -0.4139130115509033,
        0.6166340112686157
      ],
      "type": "VEC3"
    },
    {
      "bufferView": 2,
      "byteOffset": 104592,
      "componentType": 5126,
      "count": 8716,
      "max": [
        0.9998664855957031,
        0.9996616244316101,
        0.999537467956543
      ],
      "min": [
        -0.9998090267181396,
        -0.9996901154518127,
        -0.9997281432151794
      ],
      "type": "VEC3"
    },
    {
      "bufferView": 1,
      "componentType": 5126,
      "count": 8716,
      "max": [
        0.9951199889183044,
        0.9908300042152405
      ],
      "min": [
        0.01322999969124794,
        0.015309999696910381
      ],
      "type": "VEC2"
    },
    {
      "bufferView": 0,
      "componentType": 5125,
      "count": 49065,
      "type": "SCALAR"
    },
    {
      "bufferView": 2,
      "byteOffset": 209184,
      "componentType": 5126,
      "count": 6759,
      "max": [
        0.7804830074310303,
        0.05120500177145004,
        3.737963914871216
      ],
      "min": [
        -0.7587119936943054,
        -0.3939709961414337,
        2.0967938899993896
      ],
      "type": "VEC3"
    },
    {
      "bufferView": 2,
      "byteOffset": 290292,
      "componentType": 5126,
      "count": 6759,
      "max": [
        0.9998074769973755,
        0.9997414946556091,
        0.9997904896736145
      ],
      "min": [
        -0.9998074769973755,
        -0.9998056292533875,
        -0.9934596419334412
      ],
      "type": "VEC3"
    },
    {
      "bufferView": 1,
      "byteOffset": 69728,
      "componentType": 5126,
      "count": 6759,
      "max": [
        0.9918699860572815,
        0.9940999746322632
      ],
      "min": [
        0.0065299998968839645,
        0.008700000122189522
      ],
      "type": "VEC2"
    },
    {
      "bufferView": 0,
      "byteOffset": 196260,
      "componentType": 5125,
      "count": 35784,
      "type": "SCALAR"
    }
  ],
  "asset": {
    "extras": {
      "author": "Ser (https://sketchfab.com/msmangekyou49)",
      "license": "SKETCHFAB Standard (https://sketchfab.com/licenses)",
      "source": "https://sketchfab.com/3d-models/normal-girl-e01e30d67b9f4d94ab684d89c303c2b1",
      "title": "Normal Girl"
    },
    "generator": "Sketchfab-15.87.0",
    "version": "2.0"
  },
  "bufferViews": [
    {
      "buffer": 0,
      "byteLength": 339396,
      "name": "floatBufferViews",
      "target": 34963
    },
    {
      "buffer": 0,
      "byteLength": 123800,
      "byteOffset": 339396,
      "byteStride": 8,
      "name": "floatBufferViews",
      "target": 34962
    },
    {
      "buffer": 0,
      "byteLength": 371400,
      "byteOffset": 463196,
      "byteStride": 12,
      "name": "floatBufferViews",
      "target": 34962
    }
  ],
  "buffers": [
    {
      "byteLength": 834596,
      "uri": "scene.bin"
    }
  ],
  "extensionsUsed": [
    "KHR_materials_unlit"
  ],
  "images": [
    {
      "uri": "textures/defaultMat_baseColor.png"
    }
  ],
  "materials": [
    {
      "doubleSided": true,
      "extensions": {
        "KHR_materials_unlit": {}
      },
      "name": "defaultMat",
      "pbrMetallicRoughness": {
        "baseColorTexture": {
          "index": 0
        },
        "metallicFactor": 0.0
      }
    }
  ],
  "meshes": [
    {
      "name": "Object_0",
      "primitives": [
        {
          "attributes": {
            "NORMAL": 1,
            "POSITION": 0,
            "TEXCOORD_0": 2
          },
          "indices": 3,
          "material": 0,
          "mode": 4
        }
      ]
    },
    {
      "name": "Object_1",
      "primitives": [
        {
          "attributes": {
            "NORMAL": 5,
            "POSITION": 4,
            "TEXCOORD_0": 6
          },
          "indices": 7,
          "material": 0,
          "mode": 4
        }
      ]
    }
  ],
  "nodes": [
    {
      "children": [
        1
      ],
      "matrix": [
        1.0,
        0.0,
        0.0,
        0.0,
        0.0,
        2.220446049250313e-16,
        -1.0,
        0.0,
        0.0,
        1.0,
        2.220446049250313e-16,
        0.0,
        0.0,
        0.0,
        0.0,
        1.0
      ],
      "name": "Sketchfab_model"
    },
    {
      "children": [
        2,
        3
      ],
      "name": "last resort.obj.cleaner.materialmerger.gles"
    },
    {
      "mesh": 0,
      "name": "Object_2"
    },
    {
      "mesh": 1,
      "name": "Object_3"
    }
  ],
  "samplers": [
    {
      "magFilter": 9729,
      "minFilter": 9987,
      "wrapS": 10497,
      "wrapT": 10497
    }
  ],
  "scene": 0,
  "scenes": [
    {
      "name": "Sketchfab_Scene",
      "nodes": [
        0
      ]
    }
  ],
  "textures": [
    {
      "sampler": 0,
      "source": 0
    }
  ]
}
