{
  "asset": {
    "extras": {
      "author": "Ser (https://sketchfab.com/msmangekyou49)",
      "license": "SKETCHFAB Standard (https://sketchfab.com/licenses)",
      "source": "https://sketchfab.com/3d-models/normal-girl-e01e30d67b9f4d94ab684d89c303c2b1",
      "title": "Normal Girl"
    },
    "generator": "gltfeditor.com",
    "version": "2.0"
  },
  "buffers": [
    {
      "uri": "data:application/octet-stream;base64,",
      "byteLength": 475172
    },
    {
      "uri": "data:application/octet-stream;base64,",
      "byteLength": 359424
    }
  ],
  "bufferViews": [
    {
      "buffer": 0,
      "byteOffset": 0,
      "byteLength": 209184,
      "byteStride": 24,
      "target": 34962
    },
    {
      "buffer": 0,
      "byteOffset": 209184,
      "byteLength": 69728,
      "byteStride": 8,
      "target": 34962
    },
    {
      "buffer": 0,
      "byteOffset": 278912,
      "byteLength": 196260,
      "target": 34963
    },
    {
      "buffer": 1,
      "byteOffset": 0,
      "byteLength": 162216,
      "byteStride": 24,
      "target": 34962
    },
    {
      "buffer": 1,
      "byteOffset": 162216,
      "byteLength": 54072,
      "byteStride": 8,
      "target": 34962
    },
    {
      "buffer": 1,
      "byteOffset": 216288,
      "byteLength": 143136,
      "target": 34963
    }
  ],
  "accessors": [
    {
      "bufferView": 0,
      "byteOffset": 0,
      "componentType": 5126,
      "normalized": false,
      "count": 8716,
      "min": [
        -0.9998090267181396,
        -0.9996901154518127,
        -0.9997281432151794
      ],
      "max": [
        0.9998664855957031,
        0.9996616244316101,
        0.999537467956543
      ],
      "type": "VEC3"
    },
    {
      "bufferView": 0,
      "byteOffset": 12,
      "componentType": 5126,
      "normalized": false,
      "count": 8716,
      "min": [
        -0.5152390003204346,
        -0.4139130115509033,
        0.6166340112686157
      ],
      "max": [
        0.5152390003204346,
        0.12448500096797943,
        3.7930569648742676
      ],
      "type": "VEC3"
    },
    {
      "bufferView": 1,
      "byteOffset": 0,
      "componentType": 5126,
      "normalized": false,
      "count": 8716,
      "min": [
        0.01322999969124794,
        0.015309999696910381
      ],
      "max": [
        0.9951199889183044,
        0.9908300042152405
      ],
      "type": "VEC2"
    },
    {
      "bufferView": 2,
      "byteOffset": 0,
      "componentType": 5125,
      "normalized": false,
      "count": 49065,
      "min": [
        0
      ],
      "max": [
        8715
      ],
      "type": "SCALAR"
    },
    {
      "bufferView": 3,
      "byteOffset": 0,
      "componentType": 5126,
      "normalized": false,
      "count": 6759,
      "min": [
        -0.9998074769973755,
        -0.9998056292533875,
        -0.9934596419334412
      ],
      "max": [
        0.9998074769973755,
        0.9997414946556091,
        0.9997904896736145
      ],
      "type": "VEC3"
    },
    {
      "bufferView": 3,
      "byteOffset": 12,
      "componentType": 5126,
      "normalized": false,
      "count": 6759,
      "min": [
        -0.7587119936943054,
        -0.3939709961414337,
        2.0967938899993896
      ],
      "max": [
        0.7804830074310303,
        0.05120500177145004,
        3.737963914871216
      ],
      "type": "VEC3"
    },
    {
      "bufferView": 4,
      "byteOffset": 0,
      "componentType": 5126,
      "normalized": false,
      "count": 6759,
      "min": [
        0.0065299998968839645,
        0.008700000122189522
      ],
      "max": [
        0.9918699860572815,
        0.9940999746322632
      ],
      "type": "VEC2"
    },
    {
      "bufferView": 5,
      "byteOffset": 0,
      "componentType": 5125,
      "normalized": false,
      "count": 35784,
      "min": [
        0
      ],
      "max": [
        6758
      ],
      "type": "SCALAR"
    }
  ],
  "scene": 0,
  "scenes": [
    {
      "nodes": [
        3
      ],
      "name": "Sketchfab_Scene"
    }
  ],
  "nodes": [
    {
      "name": "Object_2",
      "mesh": 0
    },
    {
      "name": "Object_3",
      "mesh": 1
    },
    {
      "name": "last resort.obj.cleaner.materialmerger.gles",
      "children": [
        0,
        1
      ]
    },
    {
      "name": "Sketchfab_model",
      "children": [
        2
      ],
      "matrix": [
        1,
        0,
        0,
        0,
        0,
        3.422854177870249e-8,
        -0.9999999403953552,
        0,
        0,
        0.9999999403953552,
        3.422854177870249e-8,
        0,
        0,
        0,
        0,
        1
      ]
    }
  ],
  "meshes": [
    {
      "primitives": [
        {
          "material": 0,
          "mode": 4,
          "attributes": {
            "NORMAL": 0,
            "POSITION": 1,
            "TEXCOORD_0": 2
          },
          "indices": 3
        }
      ]
    },
    {
      "primitives": [
        {
          "material": 1,
          "mode": 4,
          "attributes": {
            "NORMAL": 4,
            "POSITION": 5,
            "TEXCOORD_0": 6
          },
          "indices": 7
        }
      ]
    }
  ],
  "materials": [
    {
      "pbrMetallicRoughness": {
        "baseColorFactor": [
          1,
          1,
          1,
          1
        ],
        "baseColorTexture": {
          "index": 0,
          "texCoord": 0
        }
      },
      "emissiveFactor": [
        0,
        0,
        0
      ],
      "alphaMode": "OPAQUE",
      "doubleSided": false,
      "extensions": {
        "KHR_materials_unlit": {}
      }
    },
    {
      "pbrMetallicRoughness": {
        "baseColorFactor": [
          1,
          1,
          1,
          1
        ],
        "baseColorTexture": {
          "index": 1,
          "texCoord": 0
        }
      },
      "emissiveFactor": [
        0,
        0,
        0
      ],
      "alphaMode": "OPAQUE",
      "doubleSided": false,
      "extensions": {
        "KHR_materials_unlit": {}
      }
    }
  ],
  "textures": [
    {
      "sampler": 0,
      "name": "textures/defaultMat_baseColor.png",
      "source": 0
    },
    {
      "sampler": 1,
      "name": "textures/defaultMat_baseColor.png",
      "source": 1
    }
  ],
  "samplers": [
    {
      "magFilter": 9729,
      "minFilter": 9987,
      "wrapS": 10497,
      "wrapT": 10497
    },
    {
      "magFilter": 9729,
      "minFilter": 9987,
      "wrapS": 10497,
      "wrapT": 10497
    }
  ],
  "images": [
    {
      "uri": "data:image/jpeg;base64,",
      "mimeType": "image/jpeg"
    },
    {
      "uri": "data:image/jpeg;base64,",
      "mimeType": "image/jpeg"
    }
  ],
  "extensionsRequired": [
    "KHR_materials_unlit"
  ],
  "extensionsUsed": [
    "KHR_materials_unlit"
  ]
}