{
  "asset": {
    "extras": {
      "author": "Ahmad Riazi (https://sketchfab.com/ahmadriazi)",
      "license": "CC-BY-4.0 (http://creativecommons.org/licenses/by/4.0/)",
      "source": "https://sketchfab.com/3d-models/tshirt-b39331bf1058483c90b4c9b5d205538f",
      "title": "tshirt"
    },
    "generator": "gltfeditor.com",
    "version": "2.0"
  },
  "buffers": [
    {
      "uri": "data:application/octet-stream;base64,",
      "byteLength": 503928
    },
    {
      "uri": "data:application/octet-stream;base64,",
      "byteLength": 273008
    },
    {
      "uri": "data:application/octet-stream;base64,",
      "byteLength": 272816
    },
    {
      "uri": "data:application/octet-stream;base64,",
      "byteLength": 1035140
    }
  ],
  "bufferViews": [
    {
      "buffer": 0,
      "byteOffset": 0,
      "byteLength": 253824,
      "byteStride": 24,
      "target": 34962
    },
    {
      "buffer": 0,
      "byteOffset": 253824,
      "byteLength": 250104,
      "target": 34963
    },
    {
      "buffer": 1,
      "byteOffset": 0,
      "byteLength": 122424,
      "byteStride": 24,
      "target": 34962
    },
    {
      "buffer": 1,
      "byteOffset": 122424,
      "byteLength": 40808,
      "byteStride": 8,
      "target": 34962
    },
    {
      "buffer": 1,
      "byteOffset": 163232,
      "byteLength": 109776,
      "target": 34963
    },
    {
      "buffer": 2,
      "byteOffset": 0,
      "byteLength": 122280,
      "byteStride": 24,
      "target": 34962
    },
    {
      "buffer": 2,
      "byteOffset": 122280,
      "byteLength": 40760,
      "byteStride": 8,
      "target": 34962
    },
    {
      "buffer": 2,
      "byteOffset": 163040,
      "byteLength": 109776,
      "target": 34963
    },
    {
      "buffer": 3,
      "byteOffset": 0,
      "byteLength": 451176,
      "byteStride": 24,
      "target": 34962
    },
    {
      "buffer": 3,
      "byteOffset": 451176,
      "byteLength": 150392,
      "byteStride": 8,
      "target": 34962
    },
    {
      "buffer": 3,
      "byteOffset": 601568,
      "byteLength": 433572,
      "target": 34963
    }
  ],
  "accessors": [
    {
      "bufferView": 0,
      "byteOffset": 0,
      "componentType": 5126,
      "normalized": false,
      "count": 10576,
      "min": [
        -0.9999837875366211,
        -0.9999231100082397,
        -0.9995351433753967
      ],
      "max": [
        0.9999992847442627,
        0.9999892711639404,
        0.9999328851699829
      ],
      "type": "VEC3"
    },
    {
      "bufferView": 0,
      "byteOffset": 12,
      "componentType": 5126,
      "normalized": false,
      "count": 10576,
      "min": [
        -299.1488037109375,
        -137.88389587402344,
        -1898.4375
      ],
      "max": [
        289.68841552734375,
        188.1796875,
        -14.54024887084961
      ],
      "type": "VEC3"
    },
    {
      "bufferView": 1,
      "byteOffset": 0,
      "componentType": 5125,
      "normalized": false,
      "count": 62526,
      "min": [
        0
      ],
      "max": [
        10575
      ],
      "type": "SCALAR"
    },
    {
      "bufferView": 2,
      "byteOffset": 0,
      "componentType": 5126,
      "normalized": false,
      "count": 5101,
      "min": [
        -0.999975323677063,
        -0.9998605251312256,
        -0.9996621012687683
      ],
      "max": [
        0.9971684813499451,
        0.9996243119239807,
        0.9999996423721313
      ],
      "type": "VEC3"
    },
    {
      "bufferView": 2,
      "byteOffset": 12,
      "componentType": 5126,
      "normalized": false,
      "count": 5101,
      "min": [
        50.074764251708984,
        -93.91371154785156,
        -130.18798828125
      ],
      "max": [
        185.92550659179688,
        206.9861602783203,
        -0.6084216833114624
      ],
      "type": "VEC3"
    },
    {
      "bufferView": 3,
      "byteOffset": 0,
      "componentType": 5126,
      "normalized": false,
      "count": 5101,
      "min": [
        0.0019499999471008778,
        0.00195997953414917
      ],
      "max": [
        0.9965500235557556,
        0.9980499744415283
      ],
      "type": "VEC2"
    },
    {
      "bufferView": 4,
      "byteOffset": 0,
      "componentType": 5125,
      "normalized": false,
      "count": 27444,
      "min": [
        0
      ],
      "max": [
        5100
      ],
      "type": "SCALAR"
    },
    {
      "bufferView": 5,
      "byteOffset": 0,
      "componentType": 5126,
      "normalized": false,
      "count": 5095,
      "min": [
        -0.999179482460022,
        -0.9993274211883545,
        -0.9999887943267822
      ],
      "max": [
        0.9999430179595947,
        0.9997289776802063,
        0.9999997615814209
      ],
      "type": "VEC3"
    },
    {
      "bufferView": 5,
      "byteOffset": 12,
      "componentType": 5126,
      "normalized": false,
      "count": 5095,
      "min": [
        -186.2198028564453,
        -93.69651794433594,
        -130.13784790039062
      ],
      "max": [
        -49.72277069091797,
        207.1353759765625,
        -0.6013072729110718
      ],
      "type": "VEC3"
    },
    {
      "bufferView": 6,
      "byteOffset": 0,
      "componentType": 5126,
      "normalized": false,
      "count": 5095,
      "min": [
        0.0019499999471008778,
        0.00195997953414917
      ],
      "max": [
        0.9965500235557556,
        0.9980499744415283
      ],
      "type": "VEC2"
    },
    {
      "bufferView": 7,
      "byteOffset": 0,
      "componentType": 5125,
      "normalized": false,
      "count": 27444,
      "min": [
        0
      ],
      "max": [
        5094
      ],
      "type": "SCALAR"
    },
    {
      "bufferView": 8,
      "byteOffset": 0,
      "componentType": 5126,
      "normalized": false,
      "count": 18799,
      "min": [
        -0.9999479055404663,
        -0.9999951124191284,
        -0.942206084728241
      ],
      "max": [
        0.9999921321868896,
        0.9999818801879883,
        0.9332436323165894
      ],
      "type": "VEC3"
    },
    {
      "bufferView": 8,
      "byteOffset": 12,
      "componentType": 5126,
      "normalized": false,
      "count": 18799,
      "min": [
        -306.3199768066406,
        -175.76353454589844,
        -1633.0225830078125
      ],
      "max": [
        329.3695068359375,
        167.52316284179688,
        -49.73784637451172
      ],
      "type": "VEC3"
    },
    {
      "bufferView": 9,
      "byteOffset": 0,
      "componentType": 5126,
      "normalized": false,
      "count": 18799,
      "min": [
        0.01926558092236519,
        0.02265632152557373
      ],
      "max": [
        0.9859260320663452,
        0.9833135008811951
      ],
      "type": "VEC2"
    },
    {
      "bufferView": 10,
      "byteOffset": 0,
      "componentType": 5125,
      "normalized": false,
      "count": 108393,
      "min": [
        0
      ],
      "max": [
        18798
      ],
      "type": "SCALAR"
    }
  ],
  "scene": 0,
  "scenes": [
    {
      "nodes": [
        11
      ]
    }
  ],
  "nodes": [
    {
      "name": "Object_5",
      "mesh": 0
    },
    {
      "name": "body_3_0",
      "children": [
        0
      ]
    },
    {
      "name": "Object_7",
      "mesh": 1
    },
    {
      "name": "shoes_l_Shape_1",
      "children": [
        2
      ]
    },
    {
      "name": "Object_9",
      "mesh": 2
    },
    {
      "name": "shoes_r_Shape_2",
      "children": [
        4
      ]
    },
    {
      "name": "Object_11",
      "mesh": 3
    },
    {
      "name": "tshirt_3",
      "children": [
        6
      ]
    },
    {
      "name": "Default_4",
      "children": [
        1,
        3,
        5,
        7
      ],
      "matrix": [
        0.0010000000474974513,
        0,
        0,
        0,
        0,
        3.422854361057048e-11,
        0.0010000000474974513,
        0,
        0,
        -0.0010000000474974513,
        3.422854361057048e-11,
        0,
        0,
        0,
        0,
        1
      ]
    },
    {
      "name": "GLTF_SceneRootNode",
      "children": [
        8
      ],
      "matrix": [
        1,
        0,
        0,
        0,
        0,
        3.422854177870249e-8,
        0.9999999403953552,
        0,
        0,
        -0.9999999403953552,
        3.422854177870249e-8,
        0,
        0,
        0,
        0,
        1
      ]
    },
    {
      "name": "root",
      "children": [
        9
      ]
    },
    {
      "name": "Sketchfab_model",
      "children": [
        10
      ],
      "matrix": [
        1,
        0,
        0,
        0,
        0,
        3.422854177870249e-8,
        -0.9999999403953552,
        0,
        0,
        0.9999999403953552,
        3.422854177870249e-8,
        0,
        0,
        0,
        0,
        1
      ]
    }
  ],
  "meshes": [
    {
      "primitives": [
        {
          "material": 0,
          "mode": 4,
          "attributes": {
            "NORMAL": 0,
            "POSITION": 1
          },
          "indices": 2
        }
      ]
    },
    {
      "primitives": [
        {
          "material": 1,
          "mode": 4,
          "attributes": {
            "NORMAL": 3,
            "POSITION": 4,
            "TEXCOORD_0": 5
          },
          "indices": 6
        }
      ]
    },
    {
      "primitives": [
        {
          "material": 1,
          "mode": 4,
          "attributes": {
            "NORMAL": 7,
            "POSITION": 8,
            "TEXCOORD_0": 9
          },
          "indices": 10
        }
      ]
    },
    {
      "primitives": [
        {
          "material": 2,
          "mode": 4,
          "attributes": {
            "NORMAL": 11,
            "POSITION": 12,
            "TEXCOORD_0": 13
          },
          "indices": 14
        }
      ]
    }
  ],
  "materials": [
    {
      "name": "Material.001",
      "pbrMetallicRoughness": {
        "baseColorFactor": [
          0.8,
          0.8,
          0.8,
          1
        ],
        "metallicFactor": 0,
        "roughnessFactor": 0.2
      },
      "emissiveFactor": [
        0,
        0,
        0
      ],
      "alphaMode": "OPAQUE",
      "doubleSided": true
    },
    {
      "name": "material_0",
      "pbrMetallicRoughness": {
        "baseColorFactor": [
          1,
          1,
          1,
          1
        ],
        "metallicFactor": 0,
        "roughnessFactor": 0.6
      },
      "emissiveFactor": [
        0,
        0,
        0
      ],
      "alphaMode": "OPAQUE",
      "doubleSided": true
    },
    {
      "name": "Material.002",
      "pbrMetallicRoughness": {
        "baseColorFactor": [
          1,
          1,
          1,
          1
        ],
        "metallicFactor": 0,
        "roughnessFactor": 1,
        "baseColorTexture": {
          "index": 0,
          "texCoord": 0
        }
      },
      "emissiveFactor": [
        0,
        0,
        0
      ],
      "alphaMode": "OPAQUE",
      "doubleSided": true
    }
  ],
  "textures": [
    {
      "sampler": 0,
      "source": 0,
      "name": "textures/Material.002_baseColor.png"
    }
  ],
  "samplers": [
    {
      "magFilter": 9729,
      "minFilter": 9987,
      "wrapS": 10497,
      "wrapT": 10497
    }
  ],
  "images": [
    {
      "uri": "data:image/jpeg;base64,",
      "mimeType": "image/jpeg"
    }
  ]
}