<?xml version="1.0" standalone="no"?>
<!DOCTYPE svg PUBLIC "-//W3C//DTD SVG 20010904//EN"
 "http://www.w3.org/TR/2001/REC-SVG-20010904/DTD/svg10.dtd">
<svg version="1.0" xmlns="http://www.w3.org/2000/svg"
 width="450.000000pt" height="450.000000pt" viewBox="0 0 450.000000 450.000000"
 preserveAspectRatio="xMidYMid meet">
<metadata>
Created by potrace 1.14, written by Peter Selinger 2001-2017
</metadata>
<g transform="translate(0.000000,450.000000) scale(0.100000,-0.100000)"
fill="#000000" stroke="none">
<path d="M2092 4180 c-13 -27 -23 -51 -22 -52 0 -2 -15 -32 -33 -68 -39 -73
-19 -65 -229 -95 -54 -8 -54 -21 -4 -66 138 -122 139 -123 131 -170 -3 -24 -8
-62 -11 -84 -2 -22 -6 -46 -9 -52 -2 -7 1 -13 8 -13 9 0 9 -2 1 -8 -14 -8 -22
-48 -11 -51 11 -3 97 41 97 50 0 4 14 10 30 14 17 4 30 11 30 15 0 5 17 14 38
20 35 11 42 8 131 -39 119 -64 137 -70 127 -45 -9 23 -26 105 -33 159 -3 22
-9 47 -14 57 -7 12 11 37 81 110 49 51 90 96 90 100 0 4 -8 6 -17 6 -10 -1
-36 2 -58 6 -22 4 -69 11 -105 16 -37 5 -69 16 -76 24 -6 9 -33 61 -60 116
-27 54 -51 100 -54 100 -3 0 -15 -22 -28 -50z"/>
<path d="M3026 4090 c-17 -22 -33 -40 -38 -40 -4 0 -8 -4 -8 -10 0 -5 -21 -32
-46 -59 -38 -42 -52 -50 -73 -46 -24 4 -62 9 -178 20 -24 3 -43 2 -43 -1 0 -6
49 -95 60 -109 44 -55 76 -155 50 -155 -5 0 -10 -6 -10 -13 0 -7 -16 -45 -35
-86 -37 -76 -44 -106 -22 -98 17 6 176 45 208 51 21 3 39 -9 100 -66 41 -39
84 -77 97 -86 22 -14 22 -14 23 29 2 51 7 119 13 169 2 19 5 41 5 48 1 6 10
12 21 12 11 0 20 5 20 10 0 6 7 10 15 10 8 0 15 5 15 10 0 6 6 10 13 10 7 0
36 15 64 34 28 19 57 36 65 38 8 3 4 9 -12 18 -28 16 -24 15 -67 25 -18 4 -38
14 -44 21 -6 8 -17 14 -25 14 -26 0 -84 34 -85 49 -1 17 -4 33 -8 41 -1 3 -4
19 -6 35 -3 27 -11 74 -20 115 -2 8 -4 23 -4 33 -1 26 -13 20 -45 -23z"/>
<path d="M1169 3928 c-1 -2 -2 -14 -4 -28 -1 -14 -6 -56 -10 -95 -4 -38 -8
-82 -9 -97 0 -22 -11 -33 -64 -62 -36 -20 -70 -36 -77 -36 -7 0 -18 -6 -24
-14 -7 -8 -23 -17 -37 -20 -23 -6 -32 -30 -10 -26 5 1 12 -2 15 -7 7 -11 97
-55 107 -53 4 1 10 -2 13 -7 3 -4 24 -17 45 -29 32 -17 39 -27 42 -55 2 -31
10 -79 19 -119 2 -8 4 -26 4 -40 1 -14 5 -31 10 -39 9 -14 26 2 135 121 45 48
51 50 120 37 28 -6 67 -12 86 -14 19 -3 47 -8 63 -11 15 -4 27 -2 27 4 0 5
-25 53 -55 106 -30 53 -55 102 -57 109 -1 6 21 60 50 119 28 59 52 112 52 118
0 6 -9 6 -22 1 -13 -5 -41 -11 -63 -15 -22 -3 -51 -8 -65 -10 -105 -19 -92
-24 -190 74 -81 81 -98 96 -101 88z"/>
<path d="M3426 3328 c4 -47 2 -56 -20 -82 -36 -41 -33 -49 18 -43 30 4 50 1
65 -9 11 -8 21 -12 21 -9 0 4 7 -1 16 -9 25 -25 32 -19 27 24 -4 37 14 100 28
100 4 0 10 7 13 16 5 14 -1 15 -40 11 -35 -3 -53 1 -77 17 -60 41 -57 41 -51
-16z"/>
<path d="M2530 3060 c-29 -22 -69 -42 -89 -46 -20 -3 -43 -8 -51 -11 -8 -3
-22 -7 -30 -8 -8 -1 -37 -5 -65 -9 -27 -4 -97 -14 -155 -22 -148 -21 -217 -20
-249 3 -35 26 -60 35 -74 26 -7 -4 -17 -8 -24 -9 -18 -3 -115 -34 -138 -44
-22 -10 -104 -39 -120 -43 -5 -1 -12 -4 -15 -7 -3 -3 -23 -11 -45 -19 -22 -8
-42 -17 -45 -20 -3 -3 -30 -19 -60 -35 -97 -50 -197 -143 -267 -246 -21 -30
-40 -57 -43 -60 -17 -15 -101 -172 -193 -355 -57 -116 -120 -239 -140 -273
-21 -35 -37 -66 -37 -68 0 -17 128 -102 202 -134 12 -6 48 -24 78 -41 110 -62
225 -119 240 -119 14 0 77 97 72 113 -1 4 2 7 7 7 8 0 31 51 30 67 -1 3 3 9 8
12 10 8 43 78 43 93 0 6 7 19 16 29 8 9 16 26 17 38 1 11 5 21 9 21 4 0 8 5 8
12 0 14 48 78 59 78 5 0 14 -15 21 -32 6 -18 16 -41 21 -50 6 -12 6 -18 -1
-18 -6 0 -6 -9 -1 -23 5 -12 12 -58 15 -102 4 -44 11 -116 16 -160 5 -44 12
-114 15 -155 3 -41 8 -86 10 -100 3 -14 7 -63 11 -110 3 -47 8 -94 11 -105 2
-11 6 -45 8 -75 2 -30 6 -68 9 -85 3 -16 8 -61 11 -100 4 -38 8 -81 10 -94 3
-14 7 -51 10 -84 4 -32 9 -68 11 -80 3 -12 7 -51 10 -87 12 -154 6 -150 229
-176 75 -9 483 -9 535 0 25 5 56 10 70 11 47 6 105 15 130 20 14 3 36 8 50 10
26 4 69 12 108 19 12 3 27 8 32 11 6 3 10 1 10 -6 0 -8 4 -8 13 -1 6 6 30 13
52 17 22 4 48 12 58 17 10 5 29 12 42 14 13 2 44 13 68 23 25 11 48 17 51 14
3 -4 6 -2 6 4 0 6 11 14 25 17 14 4 25 12 25 19 0 9 3 8 9 -1 7 -11 11 -11 24
2 8 9 20 16 26 16 6 0 11 5 11 11 0 5 4 8 9 5 11 -7 98 40 129 70 20 19 22 29
17 80 -9 109 -20 189 -25 189 -1 0 -3 14 -5 30 -4 38 -14 113 -20 145 -3 14
-8 45 -11 70 -3 25 -7 54 -9 65 -2 11 -6 38 -10 60 -3 22 -8 51 -12 65 -3 14
-6 28 -5 32 1 4 -3 31 -9 60 -6 29 -12 69 -15 88 -2 19 -6 46 -9 60 -6 32 -13
77 -20 126 -3 21 -8 50 -11 64 -5 29 -10 58 -18 115 -3 22 -8 51 -11 65 -4 14
-8 41 -10 60 -2 19 -7 58 -10 85 -12 94 -10 120 8 123 15 3 97 -67 97 -83 0
-3 12 -19 28 -35 15 -15 41 -46 57 -66 50 -63 159 -174 172 -174 25 0 103 63
229 187 200 195 202 202 112 296 -79 81 -177 188 -180 198 -15 36 -338 364
-338 342 0 -4 -7 3 -16 15 -8 12 -22 22 -30 22 -8 0 -14 4 -14 8 0 5 -12 15
-27 22 -16 8 -39 22 -53 30 -47 31 -174 71 -270 85 -59 9 -110 13 -256 20
l-120 5 -54 -40z"/>
<path d="M788 2770 c-9 -10 -24 -30 -33 -44 -18 -27 -35 -36 -84 -42 -63 -8
-66 -17 -17 -58 42 -34 46 -42 52 -97 4 -32 10 -59 14 -59 4 0 24 20 45 45 36
42 48 48 120 61 39 7 41 9 15 31 -67 56 -78 78 -85 165 -1 16 -12 16 -27 -2z"/>
<path d="M3785 1090 c-52 -29 -103 -33 -146 -9 -11 5 -19 7 -19 4 0 -3 -9 -1
-19 5 -13 7 -22 7 -26 0 -3 -5 -1 -10 6 -10 7 0 10 -3 6 -6 -3 -4 5 -26 18
-50 14 -24 21 -44 17 -44 -4 0 0 -4 8 -10 12 -7 12 -18 2 -67 -7 -32 -15 -68
-18 -80 -6 -23 8 -26 36 -8 8 5 17 10 20 10 3 1 20 9 38 18 33 18 47 18 150 1
23 -4 42 -4 42 0 0 4 -14 33 -31 64 l-32 56 15 78 c17 92 14 94 -67 48z"/>
</g>
</svg>
